<svg height="496pt" viewBox="0 0 496.00303 496" width="496pt" xmlns="http://www.w3.org/2000/svg"><path d="m216 160h8v16h16v-16h8v16h16v-17.132812c13.761719-3.578126 24-16 24-30.867188 0-9.597656-4.335938-18.125-11.054688-24 6.71875-5.871094 11.054688-14.398438 11.054688-24 0-14.863281-10.238281-27.285156-24-30.863281v-17.136719h-16v16h-8v-16h-16v16h-8c-4.414062 0-8 3.585938-8 8v96c0 4.417969 3.585938 8 8 8zm56-32c0 8.824219-7.175781 16-16 16h-32v-32h32c8.824219 0 16 7.175781 16 16zm-48-64h32c8.824219 0 16 7.175781 16 16s-7.175781 16-16 16h-32zm0 0"/><path d="m224 205.097656v50.902344h16v-48.40625c2.648438.207031 5.296875.40625 8 .40625 57.34375 0 104-46.65625 104-104s-46.65625-104-104-104-104 46.65625-104 104c0 49.074219 34.210938 90.21875 80 101.097656zm24-189.097656c48.523438 0 88 39.480469 88 88 0 48.523438-39.476562 88-88 88-48.519531 0-88-39.476562-88-88 0-48.519531 39.480469-88 88-88zm0 0"/><path d="m176 96h16v16h-16zm0 0"/><path d="m304 96h16v16h-16zm0 0"/><path d="m456 384h-184.832031c-.902344-3.542969-2.527344-6.886719-4.941407-9.695312l-26.226562-30.597657v-55.707031h-16v37.042969l-1.925781-2.25c-1.519531-1.777344-3.738281-2.792969-6.074219-2.792969h-88v-8c0-4.414062-3.582031-8-8-8h-112c-4.414062 0-8 3.585938-8 8v176c0 4.417969 3.585938 8 8 8h64c4.417969 0 8-3.582031 8-8v-8h40c4.417969 0 8-3.582031 8-8v-8h53.578125l45.984375 30.65625c1.328125.882812 2.871094 1.34375 4.4375 1.34375.570312 0 1.144531-.0625 1.714844-.183594l256-56c3.671875-.808594 6.285156-4.054687 6.285156-7.816406v-8c0-22.054688-17.941406-40-40-40zm-392 96h-48v-160h48zm48-16h-32v-144h32zm368-38.4375-246.390625 53.894531-45.167969-30.113281c-1.3125-.871094-2.863281-1.34375-4.441406-1.34375h-56v-112h84.320312l41.753907 48.714844c1.246093 1.453125 1.925781 3.292968 1.925781 5.207031v10.078125c0 4.410156-3.589844 8-8 8h-9.367188c-2.136718 0-4.152343-.832031-5.664062-2.34375l-35.3125-35.3125-11.3125 11.3125 35.3125 35.3125c4.527344 4.535156 10.5625 7.03125 16.976562 7.03125h9.367188c13.234375 0 24-10.765625 24-24h184c13.234375 0 24 10.769531 24 24zm0 0"/><path d="m256 240h16v64h-16zm0 0"/><path d="m8 144h16v64h16v-72c0-4.414062-3.582031-8-8-8h-4.6875l20.6875-20.6875 20.691406 20.6875h-4.691406c-4.414062 0-8 3.585938-8 8v72h16v-64h16c3.234375 0 6.152344-1.949219 7.394531-4.933594 1.238281-2.992187.550781-6.433594-1.738281-8.722656l-40-40c-3.125-3.125-8.183594-3.125-11.3125 0l-40 40c-2.2851562 2.289062-2.972656 5.730469-1.734375 8.722656 1.238281 2.984375 4.160156 4.933594 7.390625 4.933594zm0 0"/><path d="m88.609375 219.066406c1.238281 2.984375 4.160156 4.933594 7.390625 4.933594h16v64h16v-72c0-4.414062-3.582031-8-8-8h-4.6875l20.6875-20.6875 20.691406 20.6875h-4.691406c-4.414062 0-8 3.585938-8 8v72h16v-64h16c3.234375 0 6.152344-1.949219 7.394531-4.933594 1.238281-2.992187.550781-6.433594-1.738281-8.722656l-40-40c-3.125-3.125-8.183594-3.125-11.3125 0l-40 40c-2.285156 2.289062-2.972656 5.730469-1.734375 8.722656zm0 0"/><path d="m408 144h16v64h16v-72c0-4.414062-3.582031-8-8-8h-4.6875l20.6875-20.6875 20.691406 20.6875h-4.691406c-4.414062 0-8 3.585938-8 8v72h16v-64h16c3.234375 0 6.152344-1.949219 7.394531-4.933594 1.238281-2.992187.550781-6.433594-1.738281-8.722656l-40-40c-3.125-3.125-8.183594-3.125-11.3125 0l-40 40c-2.285156 2.289062-2.972656 5.730469-1.734375 8.722656 1.238281 2.984375 4.160156 4.933594 7.390625 4.933594zm0 0"/><path d="m312.609375 219.066406c1.238281 2.984375 4.160156 4.933594 7.390625 4.933594h16v64h16v-72c0-4.414062-3.582031-8-8-8h-4.6875l20.6875-20.6875 20.691406 20.6875h-4.691406c-4.414062 0-8 3.585938-8 8v72h16v-64h16c3.234375 0 6.152344-1.949219 7.394531-4.933594 1.238281-2.992187.550781-6.433594-1.738281-8.722656l-40-40c-3.125-3.125-8.183594-3.125-11.3125 0l-40 40c-2.285156 2.289062-2.972656 5.730469-1.734375 8.722656zm0 0"/></svg>